<svg width="84" height="59" viewBox="0 0 84 59" fill="none" xmlns="http://www.w3.org/2000/svg">
<path d="M13.926 37H10.736L9.812 34.228H4.246L3.3 37H0.11L5.808 21.336H8.206L13.926 37ZM8.998 31.654L7.084 25.956L5.104 31.654H8.998ZM25.8553 32.182C25.5766 33.7807 24.924 35.0053 23.8973 35.856C22.8706 36.7067 21.6093 37.132 20.1133 37.132C18.4413 37.132 17.0406 36.582 15.9113 35.482C15.1926 34.7633 14.7453 33.9787 14.5693 33.128C14.408 32.2627 14.3273 30.9427 14.3273 29.168C14.3273 27.3933 14.408 26.0807 14.5693 25.23C14.7453 24.3647 15.1926 23.5727 15.9113 22.854C17.0406 21.754 18.4413 21.204 20.1133 21.204C21.6093 21.204 22.8706 21.6293 23.8973 22.48C24.924 23.3307 25.5766 24.5553 25.8553 26.154H22.7313C22.3793 24.6727 21.5066 23.932 20.1133 23.932C19.2773 23.932 18.6246 24.2033 18.1553 24.746C17.862 25.0833 17.6566 25.5453 17.5393 26.132C17.4366 26.704 17.3853 27.716 17.3853 29.168C17.3853 30.62 17.4366 31.6393 17.5393 32.226C17.6566 32.798 17.862 33.2527 18.1553 33.59C18.6246 34.1327 19.2773 34.404 20.1133 34.404C21.5213 34.404 22.4013 33.6633 22.7533 32.182H25.8553ZM39.5979 37H36.4079L35.4839 34.228H29.9179L28.9719 37H25.7819L31.4799 21.336H33.8779L39.5979 37ZM34.6699 31.654L32.7559 25.956L30.7759 31.654H34.6699ZM52.3852 37H48.8432L45.7852 30.752H43.5852V37H40.5272V21.336H46.6652C48.2198 21.336 49.4518 21.798 50.3612 22.722C51.2852 23.646 51.7472 24.7827 51.7472 26.132C51.7472 27.1733 51.4758 28.046 50.9332 28.75C50.3905 29.454 49.7085 29.9527 48.8872 30.246L52.3852 37ZM48.0732 27.628C48.4838 27.2467 48.6892 26.748 48.6892 26.132C48.6892 25.516 48.4838 25.0173 48.0732 24.636C47.6625 24.2547 47.1272 24.064 46.4672 24.064H43.5852V28.2H46.4672C47.1272 28.2 47.6625 28.0093 48.0732 27.628Z" fill="#0D1C2D"/>
<path d="M84 17H58V35.6207L71 44L84 35.6207V17Z" fill="#0D1C2D"/>
<path d="M69.904 30.16C69.904 30.8533 69.8347 31.4293 69.696 31.888C69.5573 32.3467 69.2907 32.7733 68.896 33.168C68.2773 33.7867 67.44 34.096 66.384 34.096C65.296 34.096 64.448 33.792 63.84 33.184C63.296 32.64 62.9867 31.8507 62.912 30.816H64.992C65.1093 31.7547 65.5733 32.224 66.384 32.224C66.8 32.224 67.1307 32.1013 67.376 31.856C67.6747 31.5573 67.824 30.992 67.824 30.16C67.824 28.7947 67.36 28.112 66.432 28.112C65.7173 28.112 65.2587 28.4213 65.056 29.04H63.152V22.608H69.648V24.48H65.04V26.928C65.4453 26.544 66.016 26.352 66.752 26.352C67.6587 26.352 68.368 26.608 68.88 27.12C69.5627 27.8027 69.904 28.816 69.904 30.16ZM78.8795 32.384H77.8395V34H75.8395V32.384H71.1835V30.416L75.0875 22.608H77.3595L73.4555 30.416H75.8395V28.288H77.8395V30.416H78.8795V32.384Z" fill="#D2D2D2"/>
</svg>
