<svg width="20" height="20" viewBox="0 0 20 20" fill="none" xmlns="http://www.w3.org/2000/svg">
<path d="M20 9.99913C20 10.2231 19.8189 10.4042 19.5949 10.4042H17.4534L19.0968 12.0475C19.2552 12.2058 19.2552 12.4619 19.0968 12.6202C19.0178 12.6992 18.9141 12.7389 18.8104 12.7389C18.7067 12.7389 18.603 12.6992 18.524 12.6202L16.308 10.4042H10.7016L13.4794 15.2158L16.5757 16.0454C16.7916 16.1033 16.92 16.3253 16.8621 16.5416C16.8139 16.7222 16.6502 16.8417 16.4712 16.8417C16.4363 16.8417 16.4011 16.8372 16.3659 16.8279L14.0522 16.2082L15.1483 18.1071C15.2601 18.3011 15.1937 18.5486 15 18.6604C14.9365 18.6972 14.8668 18.7146 14.7979 18.7146C14.6578 18.7146 14.5217 18.6422 14.4467 18.5121L13.3762 16.6582L12.7751 18.9018C12.7269 19.0824 12.5633 19.2019 12.3842 19.2019C12.3494 19.2019 12.3141 19.1974 12.2789 19.1881C12.063 19.1302 11.9346 18.9082 11.9925 18.6919L12.8035 15.6657L9.99965 10.8099L7.22218 15.6207L8.05216 18.717C8.11046 18.9329 7.9817 19.1553 7.76577 19.2132C7.73054 19.2225 7.69531 19.227 7.66046 19.227C7.48184 19.227 7.31816 19.1079 7.26957 18.9268L6.64946 16.6132L5.55338 18.5121C5.47807 18.6417 5.34237 18.7146 5.2022 18.7146C5.13332 18.7146 5.06367 18.6972 5.00008 18.6603C4.80609 18.5485 4.73966 18.3006 4.85184 18.107L5.9224 16.2527L3.67881 16.8537C3.64358 16.8631 3.60835 16.8675 3.57349 16.8675C3.39488 16.8675 3.23082 16.7485 3.18261 16.5674C3.12469 16.3515 3.25307 16.1291 3.469 16.0712L6.49517 15.2603L9.299 10.4049H3.74309L1.47682 12.6703C1.39785 12.7493 1.29411 12.789 1.19043 12.789C1.08675 12.789 0.983011 12.7493 0.90404 12.6703C0.745657 12.512 0.745657 12.256 0.90404 12.0976L2.59798 10.4036H0.405066C0.181451 10.4038 0 10.2227 0 9.99869C0 9.77507 0.181451 9.59362 0.405066 9.59362H2.54662L0.904103 7.95155C0.74572 7.79317 0.74572 7.53716 0.904103 7.37878C1.06249 7.22039 1.3185 7.22039 1.47688 7.37878L3.69255 9.59444H9.29849L6.52146 4.78357L3.42513 3.95409C3.2092 3.89616 3.08082 3.67419 3.13874 3.45788C3.19704 3.24158 3.41902 3.11357 3.63494 3.1715L5.94824 3.7916L4.85254 1.89352C4.74073 1.69953 4.80716 1.45203 5.00077 1.34022C5.19401 1.22841 5.44189 1.29446 5.55407 1.48846L6.62507 3.3428L7.22615 1.09795C7.28407 0.881646 7.50686 0.752822 7.72235 0.811562C7.93827 0.869482 8.06666 1.09146 8.00874 1.30776L7.19778 4.33514L10.0003 9.18975L12.7782 4.3785L11.9487 1.28268C11.8907 1.06637 12.0191 0.844398 12.235 0.786477C12.4514 0.728935 12.6733 0.85694 12.7312 1.07287L13.351 3.38616L14.4467 1.48808C14.5585 1.29409 14.8067 1.22766 15 1.33984C15.194 1.45165 15.2604 1.69953 15.1482 1.89315L14.0772 3.74831L16.3221 3.14641C16.5388 3.08849 16.7599 3.2165 16.8183 3.4328C16.8766 3.64873 16.7478 3.87108 16.5319 3.929L13.5041 4.74033L10.7015 9.59495H16.2577L18.5239 7.32867C18.6823 7.17029 18.9383 7.17029 19.0967 7.32867C19.2551 7.48705 19.2551 7.74306 19.0967 7.90145L17.4032 9.59501H19.5949C19.819 9.59406 20 9.77551 20 9.99913Z" fill="#8F8F8F"/>
</svg>
