<svg width="22" height="22" viewBox="0 0 22 22" fill="none" xmlns="http://www.w3.org/2000/svg">
<path d="M11.0003 16.2279C13.884 16.2279 16.2096 13.8837 16.2096 11.0186C16.2096 8.15351 13.8654 5.80933 11.0003 5.80933C8.1352 5.80933 5.79102 8.15351 5.79102 11.0186C5.79102 13.8837 8.1166 16.2279 11.0003 16.2279ZM11.0003 7.3163C13.0468 7.3163 14.7026 8.97212 14.7026 11.0186C14.7026 13.0651 13.0468 14.721 11.0003 14.721C8.95381 14.721 7.29799 13.0651 7.29799 11.0186C7.29799 8.97212 8.95381 7.3163 11.0003 7.3163Z" fill="black"/>
<path d="M11.7629 3.39082V0.990818C11.7629 0.562911 11.428 0.228027 11.0001 0.228027C10.5722 0.228027 10.2373 0.562911 10.2373 0.990818V3.39082C10.2373 3.81872 10.5722 4.15361 11.0001 4.15361C11.428 4.15361 11.7629 3.81872 11.7629 3.39082Z" fill="black"/>
<path d="M10.2373 18.6466V21.0466C10.2373 21.4745 10.5722 21.8094 11.0001 21.8094C11.428 21.8094 11.7629 21.4745 11.7629 21.0466V18.6466C11.7629 18.2187 11.428 17.8838 11.0001 17.8838C10.5722 17.8838 10.2373 18.2187 10.2373 18.6466Z" fill="black"/>
<path d="M16.9346 6.16283L18.6277 4.46981C18.9253 4.17213 18.9253 3.68841 18.6277 3.39074C18.33 3.09306 17.8463 3.09306 17.5486 3.39074L15.8556 5.08376C15.5579 5.38143 15.5579 5.86515 15.8556 6.16283C16.0044 6.31167 16.1905 6.38609 16.3951 6.38609C16.5998 6.38609 16.7858 6.31167 16.9346 6.16283Z" fill="black"/>
<path d="M3.37218 18.6467C3.52102 18.7956 3.70706 18.87 3.91172 18.87C4.09776 18.87 4.30241 18.7956 4.45125 18.6467L6.14427 16.9537C6.44195 16.656 6.44195 16.1723 6.14427 15.8746C5.8466 15.5769 5.36288 15.5769 5.0652 15.8746L3.37218 17.5676C3.07451 17.8653 3.07451 18.349 3.37218 18.6467Z" fill="black"/>
<path d="M21.7908 11.0186C21.7908 10.5907 21.4559 10.2559 21.028 10.2559H18.628C18.2001 10.2559 17.8652 10.5907 17.8652 11.0186C17.8652 11.4466 18.2001 11.7814 18.628 11.7814H21.028C21.4373 11.7814 21.7908 11.4466 21.7908 11.0186Z" fill="black"/>
<path d="M0.972264 11.7814H3.37226C3.80017 11.7814 4.13505 11.4466 4.13505 11.0186C4.13505 10.5907 3.80017 10.2559 3.37226 10.2559H0.972264C0.544356 10.2559 0.209473 10.5907 0.209473 11.0186C0.209473 11.4466 0.562961 11.7814 0.972264 11.7814Z" fill="black"/>
<path d="M18.0881 18.87C18.2742 18.87 18.4788 18.7956 18.6277 18.6467C18.9253 18.349 18.9253 17.8653 18.6277 17.5676L16.9346 15.8746C16.637 15.5769 16.1533 15.5769 15.8556 15.8746C15.5579 16.1723 15.5579 16.656 15.8556 16.9537L17.5486 18.6467C17.6974 18.7956 17.9021 18.87 18.0881 18.87Z" fill="black"/>
<path d="M6.14427 6.16283C6.44195 5.86515 6.44195 5.38143 6.14427 5.08376L4.45125 3.39074C4.15358 3.09306 3.66986 3.09306 3.37218 3.39074C3.07451 3.68841 3.07451 4.17213 3.37218 4.46981L5.0652 6.16283C5.21404 6.31167 5.40009 6.38609 5.60474 6.38609C5.80939 6.38609 5.99544 6.31167 6.14427 6.16283Z" fill="black"/>
</svg>
